# xmcd CD database file
#
# Track frame offsets:
#	150
#	29160
#	50875
#	80550
#	101955
#	132732
#	159872
#	188730
#	212800
#	242387
#
# Disc length: 3481 seconds
#
# Revision: 3
# Processed by: cddbd v1.5.2PL0 Copyright (c) Steve Scherf et al.
# Submitted via: CDex 1.50
#
DISCID=910d970a
DTITLE=Ray Brown - Walk On - Disc2
DYEAR=2000
DGENRE=Jazz
TTITLE0=F.S.R.
TTITLE1=Stardust
TTITLE2=Evidence
TTITLE3=Woogie Boogie
TTITLE4=In A Mellow Tone
TTITLE5=The Nearness Of You
TTITLE6=Much In Common
TTITLE7=This Is Always
TTITLE8=Three By Four
TTITLE9=Down By The Riverside
EXTD=Previous Unreleased Recordings YEAR: 2000
EXTT0=
EXTT1=
EXTT2=
EXTT3=
EXTT4=
EXTT5=
EXTT6=
EXTT7=
EXTT8=
EXTT9=
PLAYORDER=
